<svg width="200" height="75" viewBox="0 0 159 52" fill="none" xmlns="http://www.w3.org/2000/svg">
  <!-- Graphic Element: Stylized Speech Bubble -->
  <path d="M19.6723 5.01949C20.4376 5.02481 21.2025 5.03014 21.9327 5.03014H29.3618C30.0919 5.03014 30.8568 5.02481 31.6221 5.01949C33.6825 5.00515 35.7459 4.99079 37.1425 5.08022C42.2264 5.4058 45.7326 8.48622 46.1834 13.7204C46.2903 15.6013 46.2877 17.8671 46.2847 20.5392V20.54C46.2841 20.9986 46.2836 21.4692 46.2836 21.9519V29.381C46.2836 29.8637 46.2841 30.3343 46.2847 30.7929C46.2877 33.4654 46.2903 35.7315 46.1834 37.6125C45.7326 42.8467 42.2264 45.9272 37.1425 46.2527C35.7459 46.3422 33.6825 46.3278 31.6221 46.3135C30.8568 46.3081 30.0919 46.3028 29.3618 46.3028H21.9327C21.2025 46.3028 20.4376 46.3081 19.6723 46.3135C17.612 46.3278 15.5486 46.3422 14.152 46.2527C9.06805 45.9272 5.56188 42.8467 5.11108 37.6125C5.0042 35.7316 5.00679 33.4658 5.00983 30.7937V30.7929C5.01036 30.3343 5.01089 29.8637 5.01089 29.381V21.9519C5.01089 21.4692 5.01036 20.9986 5.00983 20.54V20.5392C5.00679 17.8671 5.0042 15.6013 5.11108 13.7204C5.56188 8.48622 9.06805 5.4058 14.152 5.08022C15.5486 4.99079 17.612 5.00515 19.6723 5.01949Z" fill="url(#paint0_linear_nex)"/>
  <g filter="url(#filter0_dddddd_nex)">
    <path d="M11.7206 19.7347C11.7206 18.6836 12.5728 17.8314 13.624 17.8314H26.9475C29.6031 17.8314 31.7559 19.9842 31.7559 22.6399V31.5055C31.7559 32.5567 30.9038 33.4088 29.8526 33.4088H16.5291C13.8735 33.4088 11.7206 31.256 11.7206 28.6004V19.7347Z" fill="url(#paint1_linear_nex)"/>
    <path d="M13.624 18.0568H26.9475C29.4786 18.0568 31.5305 20.1087 31.5305 22.6399V31.5055C31.5305 32.4322 30.7793 33.1834 29.8526 33.1834H16.5291C13.9979 33.1834 11.946 31.1315 11.946 28.6004V19.7347C11.946 18.808 12.6973 18.0568 13.624 18.0568Z" stroke="url(#paint2_linear_nex)" stroke-width="0.450794"/>
  </g>

  <!-- Text: NEXTALK -->
  <path d="M51.9178 15.294H56.6848L61.8111 25.44H62.0242L67.1505 15.294H71.9175L63.05 31.4424V39.5403H57.2252V31.4424L51.9178 15.294Z" fill="white"/> <!-- N -->
  <path d="M75.2236 15.294H79.9906V39.5403H75.2236V15.294Z" fill="white"/> <!-- E -->
  <path d="M83.951 15.294H88.718V27.4171C88.718 30.0849 89.231 32.3461 90.2571 34.2009C91.2831 36.0557 92.6722 37.4645 94.4244 38.4274C96.1846 39.3904 98.142 39.8718 100.312 39.8718C102.491 39.8718 104.452 39.3864 106.197 38.4156C107.941 37.4448 109.326 36.036 110.352 34.1891C111.37 32.3343 111.879 30.077 111.879 27.4171V15.294H116.646V27.4171C116.646 30.7494 116.137 33.4882 115.119 35.6334C114.093 37.7786 112.708 39.3698 110.963 40.4068C109.219 41.4439 107.258 41.9625 105.079 41.9625C102.908 41.9625 100.951 41.4439 99.1988 40.4068C97.4466 39.3698 96.0575 37.7786 95.0315 35.6334C94.0054 33.4882 93.4924 30.7494 93.4924 27.4171V15.294H98.2594" fill="white"/> <!-- X -->
  <path d="M119.951 15.294H124.718V39.5403H119.951V15.294Z" fill="white"/> <!-- T -->
  <path d="M128.951 15.294H133.718V27.4171C133.718 30.0849 134.231 32.3461 135.257 34.2009C136.283 36.0557 137.672 37.4645 139.424 38.4274C141.185 39.3904 143.142 39.8718 145.312 39.8718C147.491 39.8718 149.452 39.3864 151.197 38.4156C152.941 37.4448 154.326 36.036 155.352 34.1891C156.37 32.3343 156.879 30.077 156.879 27.4171V15.294H153.646" fill="white"/> <!-- A -->
  <path d="M128.951 15.294H133.718V39.5403H128.951V15.294Z" fill="white"/> <!-- L -->
  <path d="M138.951 15.294H143.718V27.4171C143.718 30.0849 144.231 32.3461 145.257 34.2009C146.283 36.0557 147.672 37.4645 149.424 38.4274C151.185 39.3904 153.142 39.8718 155.312 39.8718C157.491 39.8718 159.452 39.3864 161.197 38.4156C162.941 37.4448 164.326 36.036 165.352 34.1891C166.37 32.3343 166.879 30.077 166.879 27.4171V15.294H163.646" fill="white"/> <!-- K -->

  <!-- Definitions: Gradients and Filters -->
  <defs>
    <linearGradient id="paint0_linear_nex" x1="5" y1="5" x2="46" y2="46" gradientUnits="userSpaceOnUse">
      <stop stop-color="#1E3A8A"/>
      <stop offset="1" stop-color="#A78BFA"/>
    </linearGradient>
    <linearGradient id="paint1_linear_nex" x1="11" y1="17" x2="31" y2="33" gradientUnits="userSpaceOnUse">
      <stop stop-color="#3B82F6"/>
      <stop offset="1" stop-color="#8B5CF6"/>
    </linearGradient>
    <linearGradient id="paint2_linear_nex" x1="11" y1="18" x2="31" y2="33" gradientUnits="userSpaceOnUse">
      <stop stop-color="#1E40AF"/>
      <stop offset="1" stop-color="#7C3AED"/>
    </linearGradient>
    <filter id="filter0_dddddd_nex" x="8.11429" y="16.479" width="27.248" height="22.7901" filterUnits="userSpaceOnUse" color-interpolation-filters="sRGB">
      <feFlood flood-opacity="0" result="BackgroundImageFix"/>
      <feColorMatrix in="SourceAlpha" type="matrix" values="0 0 0 0 0 0 0 0 0 0 0 0 0 0 0 0 0 0 127 0" result="hardAlpha"/>
      <feOffset dy="0.123703"/>
      <feGaussianBlur stdDeviation="0.0455686"/>
      <feColorMatrix type="matrix" values="0 0 0 0 0.0509804 0 0 0 0 0.121569 0 0 0 0 0.396078 0 0 0 0.189957 0"/>
      <feBlend mode="multiply" in2="BackgroundImageFix" result="effect1_dropShadow_nex"/>
      <feColorMatrix in="SourceAlpha" type="matrix" values="0 0 0 0 0 0 0 0 0 0 0 0 0 0 0 0 0 0 127 0" result="hardAlpha"/>
      <feOffset dy="0.242703"/>
      <feGaussianBlur stdDeviation="0.101348"/>
      <feColorMatrix type="matrix" values="0 0 0 0 0.0509804 0 0 0 0 0.121569 0 0 0 0 0.396078 0 0 0 0.12 0"/>
      <feBlend mode="multiply" in2="effect1_dropShadow_nex" result="effect2_dropShadow_nex"/>
      <feBlend mode="normal" in="SourceGraphic" in2="effect2_dropShadow_nex" result="shape"/>
    </filter>
  </defs>
</svg>